<svg width="365" height="67" viewBox="0 0 365 67" fill="none" xmlns="http://www.w3.org/2000/svg">
<g clip-path="url(#clip0)">
<path d="M331.43 66.3299H37.43C33.0825 66.3325 28.7771 65.4782 24.76 63.8157C20.743 62.1532 17.093 59.7151 14.0189 56.641C10.9447 53.5668 8.50669 49.9169 6.84419 45.8998C5.1817 41.8828 4.32733 37.5774 4.32996 33.2299V33.2299C4.32733 28.8824 5.1817 24.577 6.84419 20.56C8.50669 16.5429 10.9447 12.8929 14.0189 9.81879C17.093 6.74465 20.743 4.30662 24.76 2.64412C28.7771 0.981622 33.0825 0.12726 37.43 0.129889H331.43C335.777 0.12726 340.083 0.981622 344.1 2.64412C348.117 4.30662 351.767 6.74465 354.841 9.81879C357.915 12.8929 360.353 16.5429 362.016 20.56C363.678 24.577 364.533 28.8824 364.53 33.2299V33.2299C364.519 42.0053 361.029 50.4183 354.824 56.6234C348.618 62.8286 340.205 66.3193 331.43 66.3299V66.3299Z" fill="white"/>
<path d="M33.83 0.629781C27.3347 0.683087 21.0006 2.65785 15.6259 6.3052C10.2511 9.95256 6.07629 15.1093 3.62751 21.1255C1.17874 27.1416 0.565611 33.7481 1.86539 40.1122C3.16517 46.4762 6.3197 52.3132 10.9314 56.8874C15.5431 61.4615 21.4057 64.5682 27.7801 65.816C34.1546 67.0637 40.7558 66.3966 46.7518 63.8987C52.7478 61.4009 57.8702 57.184 61.4735 51.7797C65.0768 46.3753 66.9997 40.0252 67 33.5298C66.9961 29.1876 66.1336 24.8891 64.4619 20.8816C62.7903 16.8741 60.3426 13.2367 57.2597 10.1789C54.1768 7.12111 50.5195 4.70321 46.4985 3.06437C42.4775 1.42554 38.172 0.598133 33.83 0.629781V0.629781ZM45.73 32.3298L27.83 42.1298C26.33 42.9298 25.13 42.0298 25.13 40.1298L24.93 22.1298C24.93 20.2298 26.13 19.2298 27.63 20.0298L45.63 29.4298C47.13 30.2298 47.23 31.5298 45.73 32.3298Z" fill="#253B4C"/>
<path opacity="0.5" d="M36.83 -0.000270533C27.9874 -0.0321878 19.4934 3.44585 13.2126 9.67037C6.93189 15.8949 3.37758 24.3572 3.32996 33.1997C3.37758 42.0423 6.93189 50.5046 13.2126 56.7291C19.4934 62.9536 27.9874 66.4317 36.83 66.3997C55.33 66.3997 68.93 51.4997 68.93 33.1997C68.93 14.8997 55.33 -0.000270533 36.83 -0.000270533ZM48.83 31.9997L30.83 41.7997C29.33 42.5997 28.13 41.6997 28.03 39.7997L27.83 21.6997C27.83 19.7997 29.03 18.7997 30.53 19.5997L48.73 29.0997C50.23 29.9297 50.33 31.2297 48.83 31.9997Z" fill="#253B4C"/>
<path d="M66.63 25.5298C65.43 19.9298 59.13 9.02976 55.13 7.32976C51.33 5.72976 49.33 3.02976 47.83 2.72976C46.33 2.42976 39.8299 -0.370242 37.5299 0.129758C35.2299 0.629758 31.93 -0.170242 30 -0.000242358C28.07 0.169758 18 2.49976 12.3 7.69976C6.89995 12.5998 5.29995 15.2998 5.29995 15.2998C5.29995 15.2998 -4.80005 35.2998 2.79995 37.6998C4.79995 38.2998 4.49995 39.4998 4.59995 41.5998C4.59995 44.6998 3.69995 45.0998 5.99995 46.8998C8.29995 48.6998 10.7 45.2998 12.7 47.2998C14.7 49.2998 10.8 53.6998 16.2 56.6998C21.6 59.6998 20.8 51.9998 24.6 53.2998C28.4 54.5998 25.1 59.9998 29.5 60.2998C33.9 60.5998 32.3 54.7998 34.9 55.1998C37.5 55.5998 36 59.7998 41.4 58.7998C46.8 57.7998 43.1999 53.1998 46.0999 52.2998C48.9999 51.3998 50.1 57.1998 55.9 51.5998C61.7 45.9998 56.2 46.0998 57.5 43.8998C58.8 41.6998 60 45.4998 61.7 40.3998C63.4 35.2998 61.9 37.1998 61.7 34.7998C61.5 32.3998 67.83 31.1298 66.63 25.5298Z" fill="white"/>
<path d="M56.23 42.43H52.13C52.0373 42.4328 51.945 42.4165 51.8589 42.3823C51.7727 42.3481 51.6944 42.2967 51.6289 42.2311C51.5633 42.1656 51.5118 42.0873 51.4776 42.0011C51.4434 41.9149 51.4272 41.8227 51.43 41.73V40.63C51.4272 40.5373 51.4434 40.445 51.4776 40.3589C51.5118 40.2727 51.5633 40.1944 51.6289 40.1289C51.6944 40.0633 51.7727 40.0118 51.8589 39.9776C51.945 39.9434 52.0373 39.9272 52.13 39.93H56.23C56.3227 39.9272 56.4149 39.9434 56.5011 39.9776C56.5873 40.0118 56.6656 40.0633 56.7311 40.1289C56.7967 40.1944 56.8481 40.2727 56.8823 40.3589C56.9165 40.445 56.9328 40.5373 56.93 40.63V41.73C56.83 42 56.53 42.43 56.23 42.43Z" fill="#E62614"/>
<path d="M57.2299 30.2297C57.0899 30.2338 56.9515 30.1992 56.8299 30.1297L55.9299 29.5297C55.8514 29.4921 55.7831 29.4361 55.7309 29.3665C55.6786 29.2968 55.644 29.2156 55.6299 29.1297C55.6039 28.9564 55.6392 28.7795 55.7299 28.6297L57.8299 25.0297C57.9132 24.8741 58.0528 24.7562 58.2202 24.7004C58.3876 24.6446 58.57 24.6551 58.7299 24.7297L59.6299 25.3297C59.7085 25.3672 59.7768 25.4232 59.829 25.4928C59.8813 25.5625 59.9159 25.6437 59.9299 25.7297C59.956 25.9029 59.9206 26.0798 59.8299 26.2297L57.7299 29.8297C57.7299 30.1297 57.4299 30.2297 57.2299 30.2297Z" fill="#E62614"/>
<path d="M51.43 22.7296C51.3757 22.7361 51.3206 22.7305 51.2688 22.7132C51.2169 22.6959 51.1695 22.6674 51.13 22.6296L50.23 22.0296C50.0767 21.9188 49.971 21.7542 49.9339 21.5688C49.8968 21.3834 49.9311 21.1908 50.03 21.0296L52.13 17.4296C52.2132 17.274 52.3529 17.1561 52.5203 17.1004C52.6877 17.0446 52.8701 17.055 53.03 17.1296L53.93 17.7296C54.0085 17.7671 54.0768 17.8231 54.1291 17.8927C54.1813 17.9624 54.2159 18.0436 54.23 18.1296C54.2561 18.3028 54.2207 18.4797 54.13 18.6296L52 22.3296C51.83 22.5296 51.63 22.7296 51.43 22.7296Z" fill="#F7C13C"/>
<path d="M45.93 14.1295C45.8757 14.1361 45.8206 14.1305 45.7688 14.1132C45.7169 14.0959 45.6695 14.0673 45.63 14.0295C45.4513 13.9509 45.3086 13.8082 45.23 13.6295L43.83 9.62953C43.7805 9.55552 43.7542 9.46852 43.7542 9.37953C43.7542 9.29053 43.7805 9.20353 43.83 9.12953C43.9086 8.95084 44.0513 8.80811 44.23 8.72952L45.23 8.32953C45.63 8.22953 46.03 8.32952 46.13 8.72952L47.53 12.7295C47.63 13.1295 47.53 13.5295 47.13 13.6295L46.13 14.0295C46.13 14.1295 46 14.1295 45.93 14.1295Z" fill="#E62614"/>
<path d="M40.2299 15.6298L40.0299 15.8298C39.8763 15.9106 39.7027 15.9453 39.5299 15.9298L35.4299 14.8298C35.2299 14.8298 35.1299 14.6298 35.0299 14.5298C34.9575 14.3734 34.9232 14.202 34.9299 14.0298L35.2299 13.0298C35.2487 12.9439 35.2845 12.8627 35.3351 12.7909C35.3858 12.7191 35.4502 12.6581 35.5248 12.6116C35.5993 12.565 35.6823 12.5338 35.7691 12.5197C35.8558 12.5057 35.9445 12.5091 36.0299 12.5298L40.1299 13.6298C40.3299 13.6298 40.4299 13.8298 40.5299 13.9298C40.6023 14.0862 40.6366 14.2575 40.6299 14.4298L40.3299 15.4298C40.3299 15.5298 40.3299 15.6298 40.2299 15.6298Z" fill="#2DB8C4"/>
<path d="M30.2299 8.42985C30.062 8.42562 29.9007 8.36363 29.7732 8.25433C29.6457 8.14504 29.5598 7.99512 29.5299 7.82985L29.3299 6.72985C29.3038 6.55662 29.3392 6.37972 29.4299 6.22985C29.4674 6.1513 29.5234 6.083 29.5931 6.03076C29.6627 5.97852 29.744 5.9439 29.8299 5.92985L33.8299 5.02985C34.0031 5.00376 34.18 5.03914 34.3299 5.12985C34.4084 5.1674 34.4767 5.22338 34.529 5.29303C34.5812 5.36268 34.6158 5.44393 34.6299 5.52985L34.8299 6.62985C34.8658 6.81472 34.8354 7.00634 34.7439 7.17097C34.6524 7.3356 34.5058 7.46268 34.3299 7.52985L30.3299 8.42985H30.2299Z" fill="#F7C13C"/>
<path d="M42.1299 48.9298C42.0757 48.9363 42.0206 48.9307 41.9687 48.9134C41.9168 48.8961 41.8695 48.8676 41.8299 48.8298L40.9299 48.2298C40.7767 48.119 40.6709 47.9544 40.6338 47.769C40.5967 47.5835 40.6311 47.3909 40.7299 47.2298L42.8299 43.6298C42.9132 43.4742 43.0528 43.3563 43.2202 43.3005C43.3876 43.2447 43.57 43.2552 43.7299 43.3298L44.6299 43.9298C44.7085 43.9673 44.7768 44.0233 44.829 44.0929C44.8813 44.1626 44.9159 44.2438 44.9299 44.3298C44.956 44.503 44.9207 44.6799 44.8299 44.8298L42.7299 48.4298C42.5299 48.8298 42.3299 48.9298 42.1299 48.9298Z" fill="#2DB8C4"/>
<path d="M12.33 23L8.72997 21.2C8.57437 21.1167 8.45656 20.9771 8.40077 20.8097C8.34497 20.6423 8.35542 20.4599 8.42997 20.3L8.92997 19.3C8.96186 19.2148 9.01238 19.1378 9.07785 19.0747C9.14332 19.0116 9.22208 18.9639 9.30836 18.9351C9.39464 18.9064 9.48626 18.8972 9.57651 18.9085C9.66676 18.9197 9.75336 18.9509 9.82997 19L13.43 20.8C13.5856 20.8832 13.7034 21.0228 13.7592 21.1902C13.815 21.3576 13.8045 21.54 13.73 21.7L13.23 22.7C13.1468 22.8556 13.0071 22.9734 12.8397 23.0292C12.6723 23.085 12.4899 23.0745 12.33 23V23Z" fill="#F7C13C"/>
<path d="M12.7299 40.8295C12.6299 40.7295 12.5299 40.6295 12.5299 40.5295L12.0299 39.5295C11.9539 39.3542 11.9424 39.1577 11.9973 38.9747C12.0522 38.7918 12.17 38.6341 12.3299 38.5295L16.0299 36.5295C16.1863 36.4571 16.3577 36.4229 16.5299 36.4295C16.6804 36.5043 16.8159 36.606 16.9299 36.7295L17.4299 37.7295C17.4793 37.8035 17.5057 37.8905 17.5057 37.9795C17.5057 38.0685 17.4793 38.1555 17.4299 38.2295C17.3551 38.38 17.2534 38.5156 17.1299 38.6295L13.4299 40.6295C13.2735 40.7019 13.1021 40.7362 12.9299 40.7295C12.878 40.7866 12.8067 40.8222 12.7299 40.8295V40.8295Z" fill="#2DB8C4"/>
<path d="M17.43 16.1297C17.2768 16.1307 17.1269 16.0853 17 15.9997L16.1 15.3997C15.9467 15.2889 15.841 15.1243 15.8039 14.9389C15.7668 14.7535 15.8011 14.5609 15.9 14.3997L18 10.7997C18.0832 10.6441 18.2229 10.5263 18.3903 10.4705C18.5577 10.4147 18.7401 10.4251 18.9 10.4997L19.8 11.0997C19.8785 11.1372 19.9468 11.1932 19.9991 11.2629C20.0513 11.3325 20.0859 11.4138 20.1 11.4997C20.1261 11.6729 20.0907 11.8498 20 11.9997L17.9 15.5997C17.8 15.7997 17.7 15.8997 17.5 15.8997C17.53 16.1297 17.43 16.1297 17.43 16.1297Z" fill="#E62614"/>
<path d="M14.8299 32.53C14.7733 32.5816 14.7062 32.6204 14.6331 32.6436C14.5601 32.6669 14.4829 32.674 14.4069 32.6645C14.3308 32.6549 14.2577 32.6291 14.1927 32.5886C14.1276 32.5481 14.0721 32.494 14.0299 32.43L10.8299 29.73C10.6962 29.6029 10.6126 29.4321 10.5943 29.2485C10.5759 29.065 10.6241 28.881 10.7299 28.73L11.4299 27.93C11.5666 27.8045 11.7444 27.7334 11.9299 27.73C12.1299 27.73 12.3299 27.73 12.4299 27.93L15.6299 30.63C15.7518 30.7825 15.8526 30.9507 15.9299 31.13C15.956 31.3032 15.9206 31.4801 15.8299 31.63L15.1299 32.43C14.9299 32.53 14.9299 32.53 14.8299 32.53Z" fill="#E62614"/>
<path d="M18.63 50.6299C18.4761 50.6284 18.3264 50.5796 18.2012 50.4902C18.076 50.4008 17.9813 50.275 17.93 50.1299L16.83 45.9999C16.8026 45.9079 16.7939 45.8115 16.8043 45.7161C16.8147 45.6208 16.8441 45.5285 16.8907 45.4447C16.9372 45.3608 17.0001 45.2871 17.0755 45.2279C17.151 45.1687 17.2375 45.1252 17.33 45.0999L18.33 44.7999C18.5032 44.7738 18.6801 44.8092 18.83 44.8999C19.03 44.9999 19.13 45.0999 19.13 45.2999L20.23 49.3999C20.2561 49.5731 20.2207 49.75 20.13 49.8999C20.03 50.0999 19.93 50.1999 19.73 50.1999L18.73 50.4999C18.83 50.6299 18.73 50.6299 18.63 50.6299Z" fill="#E62614"/>
<path d="M32.13 52.7297C31.9761 52.7283 31.8264 52.6795 31.7012 52.5901C31.576 52.5006 31.4813 52.3748 31.43 52.2297L30.43 48.1297C30.4026 48.0378 30.3939 47.9414 30.4043 47.846C30.4147 47.7507 30.4441 47.6584 30.4906 47.5746C30.5372 47.4907 30.6001 47.417 30.6755 47.3578C30.751 47.2986 30.8375 47.2551 30.93 47.2297L31.93 46.9297C32.1032 46.9037 32.2801 46.939 32.43 47.0297C32.5085 47.0673 32.5768 47.1233 32.6291 47.1929C32.6813 47.2626 32.7159 47.3438 32.73 47.4297L33.83 51.5297C33.8561 51.703 33.8207 51.8799 33.73 52.0297C33.63 52.2297 33.53 52.3298 33.33 52.3298L32.33 52.6297C32.23 52.7297 32.23 52.7297 32.13 52.7297Z" fill="#F7C13C"/>
<path d="M49.13 28.8298L26 16.8298C24.1 15.8298 22.5 17.0298 22.5 19.5298L22.7 42.5298C22.7 45.0298 24.3 46.1298 26.2 45.1298L49.1 32.6298C51.13 31.5298 51 29.8298 49.13 28.8298Z" fill="#2DB8C4"/>
<path d="M49.13 28.8298L26 16.8298C24.1 15.8298 22.5 17.0298 22.5 19.5298V22.6298L45.6 34.4298L49 32.5298C51.13 31.5298 51 29.8298 49.13 28.8298Z" fill="#253B4C"/>
<path d="M103.73 25.2299C103.43 25.6299 103.13 26.0299 102.83 26.1299C102.468 26.3464 102.051 26.4508 101.63 26.4299C101.115 26.4274 100.606 26.3255 100.13 26.1299C99.63 25.9299 99.03 25.6299 98.43 25.4299C97.7858 25.1369 97.1164 24.9026 96.43 24.7299C95.5796 24.52 94.7059 24.4192 93.83 24.4299C92.7084 24.3819 91.597 24.6597 90.63 25.2299C90.2831 25.481 90.0019 25.8121 89.8104 26.1952C89.6189 26.5782 89.5227 27.0018 89.53 27.4299C89.5165 27.7471 89.5721 28.0634 89.693 28.357C89.8138 28.6505 89.9971 28.9142 90.23 29.1299C90.8184 29.597 91.4554 29.9993 92.13 30.3299C92.93 30.6299 93.83 31.0299 94.83 31.3299C95.83 31.6299 96.83 31.9299 97.93 32.3299C98.9878 32.7026 100.023 33.1366 101.03 33.6299C102.028 34.1117 102.94 34.7535 103.73 35.5299C104.551 36.2824 105.199 37.2035 105.63 38.2299C106.148 39.4272 106.388 40.7266 106.33 42.0299C106.356 43.7488 106.015 45.4534 105.33 47.0299C104.664 48.5287 103.674 49.8608 102.43 50.9299C100.994 52.0708 99.3698 52.9508 97.63 53.5299C95.4884 54.1632 93.2629 54.4667 91.03 54.4299C89.7906 54.4295 88.5533 54.3291 87.33 54.1299C84.9506 53.749 82.6521 52.9716 80.53 51.8299C79.5907 51.3649 78.7357 50.7464 78 49.9999L80.5 45.9999C80.76 45.5402 81.1403 45.16 81.6 44.8999C82.1111 44.5926 82.7055 44.4528 83.3 44.4999C83.8924 44.4777 84.4797 44.6159 85 44.8999C85.5 45.1999 86 45.4999 86.6 45.7999C87.2839 46.1361 87.9849 46.4365 88.7 46.6999C89.6361 47.0006 90.6174 47.1359 91.6 47.0999C92.3115 47.113 93.0206 47.0117 93.7 46.7999C94.2034 46.6487 94.677 46.4119 95.1 46.0999C95.4405 45.849 95.7111 45.5151 95.8861 45.13C96.0611 44.7449 96.1348 44.3215 96.1 43.8999C96.1137 43.5679 96.0587 43.2365 95.9382 42.9268C95.8177 42.617 95.6345 42.3355 95.4 42.0999C94.8625 41.5652 94.2138 41.1555 93.5 40.8999C92.6266 40.5254 91.7235 40.2243 90.8 39.9999C89.8 39.6999 88.8 39.3999 87.7 38.9999C86.6 38.5999 85.6 38.1999 84.6 37.6999C83.5987 37.1822 82.687 36.507 81.9 35.6999C81.0752 34.8349 80.4295 33.8154 80 32.6999C79.4923 31.3597 79.2544 29.9324 79.3 28.4999C79.299 26.9875 79.6052 25.4906 80.2 24.0999C80.8221 22.686 81.7432 21.4237 82.9 20.3999C84.2058 19.257 85.7397 18.4049 87.4 17.8999C89.4383 17.2646 91.5654 16.9607 93.7 16.9999C94.9782 16.9792 96.2542 17.1135 97.5 17.3999C98.6653 17.6131 99.8049 17.9483 100.9 18.3999C101.925 18.7783 102.899 19.2821 103.8 19.8999C104.649 20.4268 105.422 21.0659 106.1 21.7999L103.73 25.2299Z" fill="#E62614"/>
<path d="M106.13 17.8296H114.83C115.498 17.8148 116.156 17.9881 116.73 18.3296C117.203 18.6607 117.582 19.1085 117.83 19.6296L121.43 35.9296C121.73 37.1296 122.03 38.3296 122.23 39.5296C122.43 40.7296 122.63 41.8296 122.83 43.0296C123.13 41.9296 123.53 40.7296 123.83 39.5296C124.13 38.3296 124.53 37.1296 124.93 35.9296L129.43 19.6296C129.612 19.0984 129.963 18.6416 130.43 18.3296C130.953 17.9565 131.59 17.7794 132.23 17.8296H137C137.668 17.8148 138.326 17.9881 138.9 18.3296C139.373 18.6607 139.752 19.1085 140 19.6296L144.3 35.9296C144.6 37.1296 145 38.3296 145.3 39.5296C145.6 40.7296 145.9 41.8296 146.2 43.0296C146.4 41.8296 146.6 40.7296 146.9 39.5296L147.8 35.9296L151.6 19.6296C151.782 19.0984 152.133 18.6416 152.6 18.3296C153.123 17.9565 153.76 17.7794 154.4 17.8296H162.7L151.4 54.1297H142.6C142.383 54.1486 142.165 54.1229 141.959 54.0541C141.752 53.9853 141.562 53.8749 141.4 53.7296C141.011 53.3447 140.734 52.8606 140.6 52.3297L135.4 34.2296C135.121 33.4438 134.887 32.6424 134.7 31.8296C134.486 31.0404 134.319 30.2389 134.2 29.4296C134 30.2296 133.9 31.0296 133.7 31.8296C133.513 32.6424 133.279 33.4438 133 34.2296L127.8 52.2296C127.693 52.7542 127.403 53.2236 126.982 53.5535C126.56 53.8835 126.035 54.0523 125.5 54.0296H117.4L106.13 17.8296Z" fill="#E62614"/>
<path d="M179.43 16.7297C181.676 16.7204 183.908 17.0924 186.03 17.8297C187.95 18.4963 189.694 19.5905 191.13 21.0297C192.6 22.5182 193.756 24.2864 194.53 26.2297C195.357 28.4693 195.764 30.8424 195.73 33.2297C195.755 33.898 195.721 34.5672 195.63 35.2297C195.574 35.6513 195.438 36.0585 195.23 36.4297C195.146 36.5797 195.031 36.7106 194.893 36.8139C194.755 36.9172 194.598 36.9907 194.43 37.0297C194.044 37.1615 193.638 37.2291 193.23 37.2297H172.43C172.528 39.6974 173.523 42.0445 175.23 43.8297C176.018 44.5283 176.935 45.0646 177.931 45.4078C178.926 45.751 179.979 45.8943 181.03 45.8297C182.152 45.883 183.274 45.713 184.33 45.3297C185.161 45.0754 185.964 44.7405 186.73 44.3297C187.43 43.9297 188.13 43.6297 188.73 43.3297C189.314 43.013 189.966 42.8415 190.63 42.8297C191.011 42.8083 191.392 42.8789 191.74 43.0356C192.088 43.1922 192.393 43.4303 192.63 43.7297L195.83 47.6297C194.804 48.8495 193.589 49.8962 192.23 50.7297C190.968 51.503 189.627 52.1399 188.23 52.6297C186.912 53.1191 185.532 53.422 184.13 53.5297C182.839 53.7215 181.535 53.8217 180.23 53.8297C177.811 53.8463 175.409 53.4402 173.13 52.6297C170.951 51.8315 168.972 50.569 167.33 48.9297C165.583 47.1999 164.22 45.1214 163.33 42.8297C162.308 40.1163 161.832 37.2276 161.93 34.3297C161.921 31.977 162.327 29.6412 163.13 27.4297C163.894 25.2868 165.123 23.34 166.73 21.7297C168.323 20.0758 170.226 18.7507 172.33 17.8297C174.628 17.1097 177.022 16.7389 179.43 16.7297V16.7297ZM179.63 24.2297C178.734 24.179 177.836 24.3125 176.994 24.6221C176.151 24.9317 175.38 25.4107 174.73 26.0297C173.459 27.4537 172.656 29.2341 172.43 31.1297H185.93C185.935 30.2871 185.834 29.4472 185.63 28.6297C185.407 27.833 185.033 27.0863 184.53 26.4297C183.978 25.7674 183.297 25.2232 182.53 24.8297C181.629 24.3905 180.632 24.1842 179.63 24.2297V24.2297Z" fill="#E62614"/>
<path d="M217.53 16.7297C219.776 16.7204 222.008 17.0924 224.13 17.8297C226.05 18.4963 227.794 19.5905 229.23 21.0297C230.667 22.5444 231.819 24.306 232.63 26.2297C233.457 28.4693 233.864 30.8424 233.83 33.2297C233.855 33.898 233.821 34.5672 233.73 35.2297C233.674 35.6513 233.538 36.0585 233.33 36.4297C233.246 36.5797 233.131 36.7106 232.993 36.8139C232.855 36.9172 232.698 36.9907 232.53 37.0297C232.144 37.1615 231.738 37.2291 231.33 37.2297H210.43C210.528 39.6974 211.523 42.0445 213.23 43.8297C214.018 44.5283 214.935 45.0646 215.931 45.4078C216.926 45.751 217.979 45.8943 219.03 45.8297C220.152 45.883 221.274 45.713 222.33 45.3297C223.161 45.0754 223.964 44.7405 224.73 44.3297C225.43 43.9297 226.13 43.6297 226.73 43.3297C227.314 43.013 227.966 42.8415 228.63 42.8297C229.011 42.8083 229.392 42.8789 229.74 43.0356C230.088 43.1922 230.393 43.4303 230.63 43.7297L233.73 47.6297C232.704 48.8495 231.489 49.8962 230.13 50.7297C228.868 51.503 227.527 52.1399 226.13 52.6297C224.812 53.1191 223.432 53.422 222.03 53.5297C220.739 53.7215 219.435 53.8217 218.13 53.8297C215.68 53.8379 213.245 53.4322 210.93 52.6297C208.751 51.8315 206.772 50.569 205.13 48.9297C203.383 47.1999 202.02 45.1214 201.13 42.8297C200.071 40.124 199.561 37.2345 199.63 34.3297C199.621 31.977 200.027 29.6412 200.83 27.4297C201.594 25.2868 202.823 23.34 204.43 21.7297C206.042 20.0979 207.94 18.776 210.03 17.8297C212.471 17.1345 214.992 16.7646 217.53 16.7297V16.7297ZM217.73 24.2297C216.834 24.179 215.936 24.3125 215.094 24.6221C214.251 24.9317 213.48 25.4107 212.83 26.0297C211.559 27.4537 210.756 29.2341 210.53 31.1297H224C224.005 30.2871 223.904 29.4472 223.7 28.6297C223.477 27.833 223.103 27.0863 222.6 26.4297C222.048 25.7674 221.367 25.2232 220.6 24.8297C219.708 24.3954 218.722 24.1892 217.73 24.2297V24.2297Z" fill="#E62614"/>
<path d="M271.63 45.6296C271.315 44.923 270.874 44.2793 270.33 43.7296C269.132 42.5841 267.538 41.9448 265.88 41.9448C264.222 41.9448 262.628 42.5841 261.43 43.7296C260.855 44.2532 260.41 44.9038 260.13 45.6296C259.8 46.3866 259.629 47.2036 259.629 48.0296C259.629 48.8555 259.8 49.6726 260.13 50.4296C260.443 51.1537 260.895 51.8091 261.461 52.3582C262.028 52.9072 262.697 53.3393 263.43 53.6296C264.226 53.9479 265.073 54.1174 265.93 54.1296C266.756 54.1299 267.573 53.9597 268.33 53.6296C269.074 53.3287 269.753 52.8873 270.33 52.3296C270.93 51.7876 271.378 51.0982 271.63 50.3296C271.939 49.566 272.109 48.7531 272.13 47.9296C272.119 47.1372 271.949 46.3552 271.63 45.6296Z" fill="#E62614"/>
<path d="M323.83 54.1297H313.93L299.83 17.8296H308.83C309.498 17.8148 310.156 17.9881 310.73 18.3296C311.203 18.6607 311.582 19.1085 311.83 19.6296L316.83 35.9296L318.03 39.8297C318.33 41.1297 318.63 42.3297 318.93 43.6297C319.23 42.3297 319.53 41.1297 319.83 39.8297C320.13 38.5297 320.63 37.2296 321.03 35.9296L326.23 19.6296C326.417 19.0715 326.81 18.6063 327.33 18.3296C327.852 17.9565 328.49 17.7794 329.13 17.8296H337.73L323.83 54.1297Z" fill="#E62614"/>
<path d="M254.63 45.5297C254.449 45.2215 254.211 44.9501 253.93 44.7297C253.6 44.5251 253.218 44.4208 252.83 44.4297C252.552 44.4363 252.278 44.5046 252.03 44.6297L251.43 44.9297C251.33 45.0297 251.13 45.0297 250.93 45.1297C250.708 45.2191 250.468 45.2534 250.23 45.2297C249.73 45.2297 249.43 45.1297 249.23 44.7297C248.922 44.2934 248.78 43.7614 248.83 43.2297V27.6297H256.93V19.5297H248.83V10.4297H240V10.5297C239.321 10.6871 238.715 11.0688 238.279 11.6131C237.844 12.1574 237.604 12.8326 237.6 13.5297V43.8297C237.572 45.2609 237.809 46.685 238.3 48.0297C238.724 49.2596 239.406 50.3847 240.3 51.3297C241.239 52.255 242.364 52.9707 243.6 53.4297C245.01 53.9356 246.502 54.1731 248 54.1297C249.725 54.1498 251.444 53.9139 253.1 53.4297C254.708 52.9416 256.227 52.1988 257.6 51.2297L258.1 50.8297L254.63 45.5297Z" fill="#E62614"/>
<path d="M296.43 45.5297C296.249 45.2215 296.011 44.9501 295.73 44.7297C295.4 44.5251 295.018 44.4208 294.63 44.4297C294.352 44.4363 294.079 44.5046 293.83 44.6297L293.23 44.9297C293.13 45.0297 292.93 45.0297 292.73 45.1297C292.508 45.2191 292.268 45.2534 292.03 45.2297C291.53 45.2297 291.23 45.1297 291.03 44.7297C290.722 44.2934 290.58 43.7614 290.63 43.2297V27.6297H298.73V19.5297H290.63V10.4297H281.83V10.5297C281.151 10.6871 280.545 11.0688 280.109 11.6131C279.674 12.1574 279.434 12.8326 279.43 13.5297V43.8297C279.402 45.2609 279.639 46.685 280.13 48.0297C280.554 49.2596 281.236 50.3847 282.13 51.3297C283.069 52.255 284.194 52.9707 285.43 53.4297C286.84 53.9356 288.332 54.1731 289.83 54.1297C291.555 54.1498 293.274 53.9139 294.93 53.4297C296.538 52.9416 298.057 52.1988 299.43 51.2297L299.93 50.8297L296.43 45.5297Z" fill="#E62614"/>
</g>
<defs>
<clipPath id="clip0">
<rect width="364.53" height="66.43" fill="white"/>
</clipPath>
</defs>
</svg>
